# xmcd
#
# Track frame offsets:
#	150
#	21910
#	36758
#	53561
#	68217
#	87436
#	98732
#	113583
#	131946
#	152891
#	172283
#	185008
#	195311
#
# Disc length: 2712
#
# Revision: 1
# Processed by: cddbd v1.5.1PL0 Copyright (c) Steve Scherf et al.
# Submitted via: ExactAudioCopy v0.90b4
# Normalized: r0:DSETVAR1,TDELIM( - )
#
DISCID=b20a960d
DTITLE=Various Artist - Celebrate America!
DYEAR=2002
DGENRE=Country
TTITLE0=Barry Mann - Celebrate America
TTITLE1=Jump 5 - God Bless the U.S.A.
TTITLE2=Plus One - America, the Beautyful
TTITLE3=Eva Cassidy - People Get Ready
TTITLE4=Bill Withers - Lean on Me
TTITLE5=Jackie DeShannon - Put a Little Love in your Heart
TTITLE6=Lee Greenwood - America
TTITLE7=Nita Whitaker - Climb Ev'ry Mountain
TTITLE8=Art Garfunkel - Bridge Over Troubled Water
TTITLE9=Willie Nelson - American Tune
TTITLE10=Pete Seeger - This Land Is your Land
TTITLE11=SHeDAISY - Battle Hymn of the Republic
TTITLE12=Kaci - The Star Spangled Banner
EXTD=
EXTT0=
EXTT1=
EXTT2=
EXTT3=
EXTT4=
EXTT5=
EXTT6=
EXTT7=
EXTT8=
EXTT9=
EXTT10=
EXTT11=
EXTT12=
PLAYORDER=
